  <svg
            version="1.0"
            xmlns="http://www.w3.org/2000/svg"
            width="800.000000pt"
            height="262.000000pt"
            viewBox="0 0 800.000000 262.000000"
            preserveAspectRatio="xMidYMid meet"
          >
            <g
              transform="translate(0.000000,262.000000) scale(0.100000,-0.100000)"
              fill="#000000"
              stroke="none"
            >
              <path
                d="M2127 2506 c-20 -8 -61 -32 -90 -53 -128 -98 -162 -110 -213 -76 -38
           24 -46 4 -41 -102 7 -144 56 -245 119 -245 43 0 67 31 153 198 85 168 119 212
           159 212 60 0 39 -51 -91 -218 -123 -157 -196 -230 -258 -258 -30 -13 -55 -26
           -55 -29 0 -4 21 -3 47 1 l46 7 -41 -43 c-22 -23 -51 -62 -64 -86 -13 -24 -26
           -44 -30 -44 -7 0 -82 89 -109 130 -14 21 -18 23 -33 11 -21 -18 -20 -27 9 -86
           24 -49 30 -74 59 -229 20 -106 47 -143 132 -188 44 -24 64 -39 54 -42 -8 -3
           -100 -35 -205 -70 -385 -132 -456 -169 -441 -229 11 -45 32 -57 100 -57 66 0
           80 6 228 89 155 87 584 206 818 226 48 4 70 3 61 -3 -17 -12 -6 -32 19 -32 10
           0 65 9 122 20 78 16 122 19 183 14 69 -5 84 -4 98 11 32 31 -1 92 -66 124 -54
           26 -103 27 -282 1 -77 -11 -146 -20 -153 -20 -8 0 -2 16 16 43 70 101 181 364
           184 433 2 43 -40 97 -107 139 -46 28 -55 30 -150 30 l-101 0 95 78 c53 44 102
           86 109 95 57 73 -100 263 -215 262 -15 -1 -45 -7 -66 -14z m258 -526 c14 -45
           -46 -263 -105 -379 -16 -34 -32 -61 -35 -61 -2 0 -21 11 -41 25 -20 14 -43 25
           -50 25 -8 0 -14 4 -14 8 0 14 73 79 108 97 29 14 33 20 27 43 -9 37 -43 71
           -79 80 -29 8 -31 11 -27 48 5 57 17 74 54 74 34 0 110 31 121 49 11 18 34 13
           41 -9z m-365 -119 c0 -45 -2 -50 -28 -59 -15 -5 -45 -26 -67 -46 -37 -35 -80
           -55 -92 -42 -13 12 30 97 64 127 29 24 103 67 121 69 1 0 2 -22 2 -49z m-72
           -230 c31 -6 32 -7 18 -27 -15 -21 -57 -45 -103 -58 -19 -6 -23 -2 -28 31 -4
           21 -9 46 -12 56 -4 17 0 18 44 12 26 -4 63 -10 81 -14z"
              />
              <path
                d="M5286 2331 c-3 -5 -1 -22 5 -39 13 -39 -3 -78 -85 -202 -75 -111
           -149 -190 -179 -190 -29 0 -41 -9 -59 -45 -37 -71 -31 -121 15 -147 12 -7 59
           -15 104 -18 68 -5 87 -10 108 -30 14 -13 25 -31 25 -40 0 -57 -272 -301 -544
           -488 -27 -18 -46 -36 -43 -39 10 -9 215 56 280 88 129 65 250 171 357 313 23
           31 45 56 47 56 3 0 23 -16 46 -35 23 -20 63 -43 90 -53 31 -11 47 -22 45 -32
           -4 -21 -153 -108 -197 -115 -63 -10 -85 -27 -95 -73 -12 -56 4 -89 50 -108 41
           -17 54 -15 222 37 57 17 106 29 109 25 3 -3 8 -27 10 -53 l5 -48 -173 -38
           -172 -37 -23 21 c-12 11 -37 22 -55 22 l-34 2 -7 -64 c-4 -35 -9 -70 -12 -76
           -14 -37 42 -200 67 -193 7 3 33 44 59 93 26 49 52 93 57 98 21 21 135 -57 249
           -170 62 -62 114 -113 117 -113 18 0 75 279 75 368 0 84 56 62 185 -74 125
           -132 178 -149 225 -71 42 68 11 134 -85 182 -55 27 -70 30 -175 32 -63 2 -121
           5 -127 8 -9 3 -13 29 -13 83 l0 79 83 6 c45 4 103 7 129 7 37 0 50 4 58 20 14
           27 -11 74 -53 101 -47 30 -179 21 -371 -25 -82 -20 -151 -34 -154 -32 -8 8
           116 85 224 139 69 35 131 59 163 63 57 7 60 14 34 68 -20 43 -31 48 -113 55
           l-65 6 49 35 c27 19 64 47 81 62 l32 28 204 -180 c112 -99 222 -188 244 -199
           44 -22 189 -41 310 -41 85 0 100 12 73 59 -23 38 -99 86 -344 217 -221 119
           -388 216 -399 235 -7 10 85 129 147 190 59 57 71 104 42 165 -31 65 -121 85
           -175 40 -15 -13 -50 -32 -76 -42 -26 -10 -49 -18 -51 -19 -11 -8 18 -39 59
           -65 30 -18 49 -37 49 -48 0 -11 -23 -51 -50 -90 l-50 -72 -49 30 c-40 25 -59
           30 -110 30 l-62 0 17 28 c9 16 47 66 85 111 38 46 69 92 69 103 0 32 -20 59
           -55 74 -58 24 -86 18 -137 -32 -53 -50 -57 -59 -28 -67 11 -3 20 -14 20 -24 0
           -23 -59 -124 -103 -177 -29 -34 -36 -37 -54 -27 -12 6 -38 11 -57 11 -20 0
           -36 4 -36 9 0 5 27 44 61 87 52 68 60 84 55 111 -7 48 -34 81 -90 114 -54 30
           -71 35 -80 20z m72 -418 c19 -20 22 -33 18 -57 -7 -33 -68 -138 -83 -143 -5
           -2 -17 13 -26 32 -9 19 -28 41 -42 47 -14 6 -25 15 -25 20 0 4 21 37 47 73 52
           72 67 76 111 28z m398 -48 c18 -15 16 -18 -44 -74 -83 -76 -142 -106 -209
           -105 -56 0 -59 -7 -11 -32 23 -12 45 -14 83 -9 61 7 82 -8 33 -24 -97 -31
           -205 -52 -235 -46 -18 3 -33 8 -33 11 0 17 193 283 208 287 9 3 56 5 103 6 62
           1 90 -3 105 -14z m-142 -843 c9 -80 -3 -108 -49 -115 -64 -10 -220 24 -212 46
           8 24 202 123 248 126 4 1 9 -25 13 -57z"
              />
              <path
                d="M4040 2320 c-22 -12 -205 -58 -265 -65 -35 -5 -65 -2 -99 10 -26 9
           -52 13 -57 8 -19 -19 68 -168 149 -255 l45 -48 -24 -20 c-41 -34 -330 -235
           -399 -277 -80 -49 -245 -123 -274 -123 -34 0 -47 -15 -53 -57 -9 -65 11 -108
           60 -132 58 -28 141 -44 185 -36 20 3 98 35 172 70 141 67 326 138 343 132 13
           -4 -207 -195 -303 -262 -41 -29 -86 -64 -98 -78 -49 -52 -46 -143 9 -255 33
           -67 74 -102 120 -102 30 0 45 11 87 67 37 47 155 110 305 162 151 53 225 50
           253 -9 7 -14 26 -55 43 -91 19 -40 44 -77 64 -91 77 -59 102 -59 139 0 20 32
           23 49 22 127 -2 145 -56 261 -149 323 -48 32 -202 92 -236 92 -25 0 -25 -34 0
           -98 l19 -48 -109 -17 c-60 -10 -137 -26 -172 -37 -85 -27 -96 -26 -66 6 37 41
           289 227 385 284 95 58 214 108 319 135 87 23 105 37 105 85 0 73 -83 149 -162
           150 -20 0 -57 -9 -83 -20 -26 -11 -88 -24 -143 -29 -169 -16 -472 -104 -785
           -227 -104 -41 -201 -74 -215 -74 -24 1 -22 3 18 24 25 13 106 45 180 71 303
           107 546 236 714 379 45 38 81 59 121 70 49 15 58 22 72 53 29 71 -8 143 -98
           188 -49 25 -111 32 -139 15z"
              />
              <path
                d="M2177 1226 c-71 -31 -178 -92 -233 -131 -21 -15 -23 -13 -58 35 -46
           64 -74 66 -94 5 -39 -114 37 -392 128 -469 49 -41 80 -29 80 31 0 41 17 50
           117 64 63 8 92 7 153 -5 78 -17 147 -20 174 -10 24 9 19 53 -10 96 l-26 37 47
           81 c26 44 51 83 56 86 16 10 10 88 -11 121 -27 45 -109 85 -185 90 -52 3 -70
           -1 -138 -31z m131 -142 c4 -31 -79 -138 -130 -167 -44 -25 -124 -53 -167 -59
           -21 -3 -25 3 -36 45 -12 48 -12 48 19 71 59 44 267 138 296 133 8 -1 16 -12
           18 -23z"
              />
              <path
                d="M2494 386 c-34 -15 -44 -33 -44 -76 0 -33 35 -65 83 -76 56 -12 107
           -36 118 -55 14 -28 -29 -69 -72 -69 -25 0 -42 10 -76 45 -23 25 -48 45 -54 45
           -11 0 -7 -43 7 -93 6 -18 34 -24 34 -7 0 7 6 7 19 0 29 -15 118 -12 150 5 35
           17 54 65 41 100 -11 28 -42 46 -119 69 -29 9 -60 21 -67 27 -37 31 9 86 61 73
           15 -4 42 -22 61 -40 51 -52 66 -43 43 24 -8 22 -17 32 -32 31 -12 0 -44 3 -72
           6 -33 3 -61 0 -81 -9z"
              />
              <path
                d="M2710 391 c0 -5 9 -11 20 -14 19 -5 20 -14 20 -131 0 -119 -1 -126
           -20 -126 -11 0 -20 -4 -20 -10 0 -6 28 -10 65 -10 63 0 86 12 44 23 -18 5 -20
           12 -17 59 l3 53 75 0 75 0 3 -53 c3 -47 1 -54 -17 -59 -42 -11 -19 -23 44 -23
           63 0 86 12 45 23 -19 5 -20 14 -20 127 0 113 1 122 20 127 41 11 18 23 -45 23
           -68 0 -79 -7 -45 -28 16 -9 20 -23 20 -62 l0 -50 -80 0 -80 0 0 50 c0 39 4 53
           20 62 34 21 23 28 -45 28 -36 0 -65 -4 -65 -9z"
              />
              <path
                d="M3153 380 c-55 -24 -83 -70 -83 -133 0 -85 46 -141 126 -153 96 -14
           172 29 192 108 36 141 -97 241 -235 178z m121 -14 c109 -45 73 -251 -44 -251
           -121 0 -150 201 -37 250 40 18 41 18 81 1z"
              />
              <path
                d="M3400 391 c0 -5 9 -11 20 -14 18 -5 20 -14 20 -105 0 -56 4 -112 10
           -126 26 -71 193 -75 230 -7 5 11 10 62 10 113 0 66 4 100 14 114 21 28 42 11
           98 -77 36 -58 47 -84 47 -117 1 -36 -3 -45 -19 -49 -41 -11 -18 -23 45 -23 63
           0 86 12 45 23 -16 4 -20 14 -20 51 0 39 8 60 47 121 49 77 62 89 88 79 12 -5
           15 -26 15 -104 0 -54 4 -110 10 -124 26 -71 193 -75 230 -7 5 11 10 62 10 113
           0 105 11 132 51 126 24 -3 24 -4 27 -126 2 -117 2 -124 -18 -129 -40 -11 -19
           -23 40 -23 58 0 80 12 40 23 -18 5 -20 14 -20 113 l0 108 58 -89 c32 -50 67
           -105 77 -122 13 -22 27 -33 42 -33 23 0 23 1 23 134 0 126 1 135 20 141 39 12
           19 25 -40 25 -59 0 -79 -13 -40 -25 18 -6 20 -15 20 -91 0 -46 -1 -84 -3 -84
           -2 0 -32 45 -67 100 l-63 100 -109 0 c-59 0 -108 -3 -108 -8 0 -4 9 -13 21
           -20 19 -12 21 -21 17 -109 -3 -90 -5 -96 -31 -119 -37 -31 -81 -31 -112 1 -23
           22 -25 31 -25 124 0 91 2 100 20 106 48 15 12 25 -90 25 -60 0 -110 -3 -110
           -6 0 -4 7 -12 15 -18 12 -9 9 -19 -20 -64 l-33 -54 -16 26 c-9 14 -23 37 -31
           51 -8 13 -15 29 -15 35 0 5 7 10 15 10 8 0 15 5 15 10 0 6 -45 10 -115 10 -63
           0 -115 -3 -115 -8 0 -4 9 -13 21 -20 19 -12 21 -21 17 -109 -3 -90 -5 -96 -31
           -119 -37 -31 -81 -31 -112 1 -23 22 -25 31 -25 124 0 91 2 100 20 106 40 13
           18 25 -45 25 -36 0 -65 -4 -65 -9z"
              />
              <path
                d="M4780 391 c0 -5 9 -11 20 -14 19 -5 20 -14 20 -120 0 -98 -3 -116
           -18 -130 -39 -36 -98 -14 -104 38 -2 22 -8 30 -23 30 -15 0 -21 -8 -23 -31 -2
           -25 3 -37 25 -54 24 -19 37 -21 92 -18 92 6 101 20 101 158 0 118 8 138 55
           126 25 -6 25 -7 25 -127 0 -112 -1 -121 -20 -126 -41 -11 -18 -23 45 -23 63 0
           86 12 45 23 -19 5 -20 14 -20 125 0 112 1 121 20 127 50 16 11 25 -110 25 -71
           0 -130 -4 -130 -9z"
              />
              <path
                d="M1420 205 c0 -13 56 -15 445 -15 389 0 445 2 445 15 0 13 -56 15
           -445 15 -389 0 -445 -2 -445 -15z"
              />
              <path
                d="M5120 205 c0 -13 56 -15 445 -15 389 0 445 2 445 15 0 13 -56 15
           -445 15 -389 0 -445 -2 -445 -15z"
              />
            </g>
          </svg>